<svg width="18" height="20" viewBox="0 0 18 20" fill="none" xmlns="http://www.w3.org/2000/svg">
<path opacity="0.4" d="M9.08649 20C8.96266 20 8.83884 19.9716 8.72709 19.9137L5.12599 18.0496C4.10415 17.5201 3.30481 16.9259 2.68063 16.2336C1.31449 14.7195 0.554402 12.776 0.542321 10.7599L0.500038 4.12426C0.495004 3.35842 0.989312 2.67103 1.72826 2.41215L8.3405 0.106788C8.73313 -0.0334361 9.17106 -0.0353973 9.57073 0.099924L16.2081 2.32684C16.9511 2.57493 17.4535 3.25742 17.4575 4.02228L17.4998 10.6628C17.5129 12.676 16.779 14.6274 15.434 16.1581C14.8168 16.8602 14.0245 17.4632 13.0128 18.0025L9.44388 19.9088C9.33314 19.9686 9.21032 19.999 9.08649 20Z" fill="#20BF6B"/>
<path d="M8.31887 12.3209C8.12558 12.3219 7.93229 12.2523 7.78329 12.1091L5.86646 10.2656C5.57048 9.97927 5.56746 9.51447 5.86042 9.22617C6.15338 8.9369 6.63158 8.93396 6.92857 9.21931L8.3078 10.5451L11.6753 7.22479C11.9693 6.93552 12.4475 6.93258 12.7435 7.21793C13.0405 7.50426 13.0435 7.97004 12.7505 8.25735L8.85144 12.1022C8.70445 12.2474 8.51217 12.3199 8.31887 12.3209Z" fill="#20BF6B"/>
</svg>
