<svg width="20" height="22" viewBox="0 0 20 22" fill="none" xmlns="http://www.w3.org/2000/svg">
<path d="M5.5 2.125H3.25C2.65326 2.125 2.08097 2.36205 1.65901 2.78401C1.23705 3.20597 1 3.77826 1 4.375V17.875C1 18.4717 1.23705 19.044 1.65901 19.466C2.08097 19.8879 2.65326 20.125 3.25 20.125H16.75C17.3467 20.125 17.919 19.8879 18.341 19.466C18.7629 19.044 19 18.4717 19 17.875V4.375C19 3.77826 18.7629 3.20597 18.341 2.78401C17.919 2.36205 17.3467 2.125 16.75 2.125H14.5M10 1V10M10 10L13.375 6.625M10 10L6.625 6.625M1 12.25H3.90925C4.20759 12.2501 4.4937 12.3686 4.70463 12.5796L7.42037 15.2954C7.6313 15.5064 7.91741 15.6249 8.21575 15.625H11.7843C12.0826 15.6249 12.3687 15.5064 12.5796 15.2954L15.2954 12.5796C15.5063 12.3686 15.7924 12.2501 16.0907 12.25H19" stroke="#20BF6B" stroke-width="2" stroke-linecap="round" stroke-linejoin="round"/>
</svg>
