<svg width="24" height="24" viewBox="0 0 24 24" fill="none" xmlns="http://www.w3.org/2000/svg">
<g id="Iconly/Bulk/Buy">
<path id="Combined Shape" opacity="0.4" fill-rule="evenodd" clip-rule="evenodd" d="M5.91064 21.0885C5.91064 20.2485 6.59064 19.5685 7.43064 19.5685C8.26064 19.5685 8.94064 20.2485 8.94064 21.0885C8.94064 21.9185 8.26064 22.5985 7.43064 22.5985C6.59064 22.5985 5.91064 21.9185 5.91064 21.0885ZM17.1606 21.0885C17.1606 20.2485 17.8406 19.5685 18.6806 19.5685C19.5106 19.5685 20.1906 20.2485 20.1906 21.0885C20.1906 21.9185 19.5106 22.5985 18.6806 22.5985C17.8406 22.5985 17.1606 21.9185 17.1606 21.0885Z" fill="#20BF6B"/>
<path id="Fill 7" fill-rule="evenodd" clip-rule="evenodd" d="M20.1907 6.84896C20.8007 6.84896 21.2007 7.05896 21.6007 7.51896C22.0007 7.97896 22.0707 8.63896 21.9807 9.23796L21.0307 15.798C20.8507 17.059 19.7707 17.988 18.5007 17.988H7.59074C6.26074 17.988 5.16074 16.968 5.05074 15.649L4.13074 4.74796L2.62074 4.48796C2.22074 4.41796 1.94074 4.02796 2.01074 3.62796C2.08074 3.21796 2.47074 2.94796 2.88074 3.00796L5.26574 3.36796C5.60574 3.42896 5.85574 3.70796 5.88574 4.04796L6.07574 6.28796C6.10574 6.60896 6.36574 6.84896 6.68574 6.84896H20.1907ZM14.1307 12.048H16.9007C17.3207 12.048 17.6507 11.708 17.6507 11.298C17.6507 10.878 17.3207 10.548 16.9007 10.548H14.1307C13.7107 10.548 13.3807 10.878 13.3807 11.298C13.3807 11.708 13.7107 12.048 14.1307 12.048Z" fill="#20BF6B"/>
</g>
</svg>
