<svg width="21" height="21" viewBox="0 0 21 21" fill="none" xmlns="http://www.w3.org/2000/svg">
<path d="M10.5 6.27778C8.75094 6.27778 7.33333 7.2225 7.33333 8.38889C7.33333 9.55528 8.75094 10.5 10.5 10.5C12.2491 10.5 13.6667 11.4447 13.6667 12.6111C13.6667 13.7775 12.2491 14.7222 10.5 14.7222M10.5 6.27778V14.7222M10.5 6.27778C11.6717 6.27778 12.6956 6.70211 13.2434 7.33333M10.5 6.27778V5.22222M10.5 14.7222V15.7778M10.5 14.7222C9.32833 14.7222 8.30444 14.2979 7.75661 13.6667M20 10.5C20 11.7476 19.7543 12.9829 19.2769 14.1355C18.7994 15.2881 18.0997 16.3354 17.2175 17.2175C16.3354 18.0997 15.2881 18.7994 14.1355 19.2769C12.9829 19.7543 11.7476 20 10.5 20C9.25244 20 8.0171 19.7543 6.86451 19.2769C5.71191 18.7994 4.66464 18.0997 3.78249 17.2175C2.90033 16.3354 2.20056 15.2881 1.72314 14.1355C1.24572 12.9829 1 11.7476 1 10.5C1 7.98044 2.00089 5.56408 3.78249 3.78249C5.56408 2.00089 7.98044 1 10.5 1C13.0196 1 15.4359 2.00089 17.2175 3.78249C18.9991 5.56408 20 7.98044 20 10.5Z" stroke="#20BF6B" stroke-width="2" stroke-linecap="round" stroke-linejoin="round"/>
</svg>
