<svg width="24" height="24" viewBox="0 0 24 24" fill="none" xmlns="http://www.w3.org/2000/svg">
<g id="Iconly/Bulk/Lock">
<g id="Lock">
<path id="Fill 1" opacity="0.4" d="M17.3903 7.29997V8.87997C16.9228 8.72097 16.4046 8.62997 15.8762 8.62997H15.8661V7.29997C15.8661 5.20998 14.1386 3.49999 12.0047 3.49999H11.9946C9.86068 3.49999 8.13325 5.19098 8.12309 7.27997V8.62997H8.11292C7.58453 8.62997 7.07646 8.72097 6.59888 8.87997V7.29997C6.60904 4.36099 9.02745 2 11.9844 2H12.0149C14.9719 2 17.3903 4.37999 17.3903 7.29997" fill="#FC5C65"/>
<path id="Fill 4" fill-rule="evenodd" clip-rule="evenodd" d="M15.8766 8.63013C16.405 8.63013 16.9232 8.72113 17.3906 8.88013C19.1993 9.50012 20.5 11.1811 20.5 13.1701V17.4601C20.5 19.9601 18.4271 22.0001 15.8766 22.0001H8.11327C5.57292 22.0001 3.5 19.9601 3.5 17.4601V13.1701C3.5 11.1811 4.80066 9.50012 6.59922 8.88013C7.07681 8.72113 7.58488 8.63013 8.11327 8.63013H15.8766ZM11.9949 17.3001C12.4928 17.3001 12.8891 16.9101 12.8891 16.4201V14.2001C12.8891 13.7211 12.4928 13.3301 11.9949 13.3301C11.5072 13.3301 11.1109 13.7211 11.1109 14.2001V16.4201C11.1109 16.9101 11.5072 17.3001 11.9949 17.3001Z" fill="#FC5C65"/>
</g>
</g>
</svg>
