<svg width="50" height="50" viewBox="0 0 50 50" fill="none" xmlns="http://www.w3.org/2000/svg">
<g id="Iconly/Bulk/Danger">
<path id="Fill 5" opacity="0.4" d="M9.83896 44.0985C9.81187 44.0985 9.78687 44.0985 9.75771 44.0965C9.10146 44.0631 8.45771 43.9215 7.84521 43.6735C4.83062 42.4485 3.37646 39.0048 4.59937 35.9923L19.8515 9.27146C20.3765 8.32146 21.1723 7.52562 22.1431 6.98812C24.9869 5.41312 28.5827 6.44854 30.1556 9.29021L45.3077 35.8069C45.6452 36.6006 45.789 37.2465 45.8244 37.9048C45.9056 39.4798 45.3681 40.9902 44.314 42.159C43.2598 43.3277 41.8119 44.0173 40.239 44.0965L9.98896 44.0985H9.83896Z" fill="#BF5A4C"/>
<path id="Combined Shape" fill-rule="evenodd" clip-rule="evenodd" d="M23.176 20.8767C23.176 19.8725 23.9948 19.0537 24.999 19.0537C26.0031 19.0537 26.8219 19.8725 26.8219 20.8767V26.7683C26.8219 27.7746 26.0031 28.5912 24.999 28.5912C23.9948 28.5912 23.176 27.7746 23.176 26.7683V20.8767ZM23.176 33.8956C23.176 32.8852 23.9948 32.0623 24.999 32.0623C26.0031 32.0623 26.8219 32.8748 26.8219 33.8727C26.8219 34.8998 26.0031 35.7185 24.999 35.7185C23.9948 35.7185 23.176 34.8998 23.176 33.8956Z" fill="#BF5A4C"/>
</g>
</svg>
