<svg width="22" height="22" viewBox="0 0 22 22" fill="none" xmlns="http://www.w3.org/2000/svg">
<path d="M10.9857 1.47172C5.56177 1.47909 1.17896 5.86681 1.17896 11.2907C1.17896 14.4335 2.65708 17.2327 4.95529 19.03L4.03454 20.2085C3.93387 20.3387 4.02717 20.5277 4.18922 20.5253L8.28967 20.5056C8.41735 20.5056 8.51065 20.3853 8.47873 20.2626L7.50887 16.2775C7.50011 16.2416 7.48139 16.2089 7.45486 16.1831C7.42833 16.1574 7.39507 16.1396 7.35891 16.1319C7.32274 16.1242 7.28514 16.1269 7.25042 16.1396C7.2157 16.1523 7.18529 16.1746 7.16266 16.2039L6.16333 17.4831C5.91288 17.2867 5.67226 17.0731 5.44391 16.8447C4.72601 16.1293 4.15396 15.2812 3.75954 14.3476C3.34949 13.3802 3.14324 12.3514 3.14324 11.2907C3.14324 10.23 3.34949 9.20118 3.75954 8.23377C4.15485 7.29828 4.72204 6.45855 5.44391 5.73668C6.16579 5.0148 7.00552 4.44761 7.94101 4.0523C8.91088 3.64226 9.93967 3.43601 11.0004 3.43601C12.0611 3.43601 13.0899 3.64226 14.0573 4.0523C14.9928 4.44761 15.8325 5.0148 16.5544 5.73668C17.2763 6.45855 17.8435 7.29828 18.2388 8.23377C18.6488 9.20118 18.8551 10.23 18.8551 11.2907C18.8551 12.3514 18.6488 13.3802 18.2388 14.3476C17.8444 15.2812 17.2723 16.1293 16.5544 16.8447C16.3703 17.0289 16.1787 17.2007 15.9798 17.3652C15.94 17.3976 15.9145 17.4444 15.909 17.4955C15.9035 17.5465 15.9184 17.5977 15.9504 17.6378L16.9178 18.8777C16.9865 18.9637 17.1118 18.9784 17.1977 18.9097C19.41 17.1074 20.8218 14.3648 20.8218 11.2907C20.8218 5.8619 16.4169 1.46435 10.9857 1.47172Z" fill="#20BF6B"/>
</svg>
