<svg width="25" height="25" viewBox="0 0 25 25" fill="none" xmlns="http://www.w3.org/2000/svg">
<path d="M13.9447 12.4987L21.2689 3.76827C21.3917 3.62318 21.2884 3.40276 21.0987 3.40276H18.8722C18.741 3.40276 18.6155 3.46135 18.529 3.5618L12.4882 10.7632L6.44749 3.5618C6.36378 3.46135 6.23823 3.40276 6.1043 3.40276H3.87773C3.688 3.40276 3.58477 3.62318 3.70753 3.76827L11.0318 12.4987L3.70753 21.2292C3.68003 21.2615 3.66239 21.3011 3.6567 21.3432C3.65101 21.3852 3.65751 21.4281 3.67543 21.4665C3.69335 21.505 3.72194 21.5376 3.7578 21.5603C3.79366 21.583 3.83528 21.595 3.87773 21.5947H6.1043C6.23544 21.5947 6.36099 21.5361 6.44749 21.4357L12.4882 14.2342L18.529 21.4357C18.6127 21.5361 18.7382 21.5947 18.8722 21.5947H21.0987C21.2884 21.5947 21.3917 21.3743 21.2689 21.2292L13.9447 12.4987Z" fill="#FC5C65"/>
</svg>
