<svg width="25" height="25" viewBox="0 0 25 25" fill="none" xmlns="http://www.w3.org/2000/svg">
<path d="M11.6627 2.45667H13.3368C13.4856 2.45667 13.56 2.53107 13.56 2.67988V22.3227C13.56 22.4715 13.4856 22.546 13.3368 22.546H11.6627C11.5139 22.546 11.4395 22.4715 11.4395 22.3227V2.67988C11.4395 2.53107 11.5139 2.45667 11.6627 2.45667Z" fill="#20BF6B"/>
<path d="M3.12556 11.441H21.8756C22.0244 11.441 22.0988 11.5154 22.0988 11.6642V13.3383C22.0988 13.4871 22.0244 13.5615 21.8756 13.5615H3.12556C2.97675 13.5615 2.90234 13.4871 2.90234 13.3383V11.6642C2.90234 11.5154 2.97675 11.441 3.12556 11.441Z" fill="#20BF6B"/>
</svg>
