<svg width="24" height="24" viewBox="0 0 24 24" fill="none" xmlns="http://www.w3.org/2000/svg">
<path fill-rule="evenodd" clip-rule="evenodd" d="M4 3H20C20.553 3 21 3.448 21 4V20C21 20.552 20.553 21 20 21H4C3.447 21 3 20.552 3 20V4C3 3.448 3.447 3 4 3ZM13 8C13 7.44772 12.5523 7 12 7C11.4477 7 11 7.44772 11 8C11 8.55228 11.4477 9 12 9C12.5523 9 13 8.55228 13 8ZM13 12.5C13 11.6716 12.3284 11 11.5 11H11C10.4477 11 10 11.4477 10 12V12.5C10 12.7761 10.2239 13 10.5 13C10.7761 13 11 13.2239 11 13.5V15.5C11 16.3284 11.6716 17 12.5 17H13C13.5523 17 14 16.5523 14 16V15.5C14 15.2239 13.7761 15 13.5 15C13.2239 15 13 14.7761 13 14.5V12.5Z" fill="#23252E" fill-opacity="0.85"/>
</svg>
